<?xml version="1.0" encoding="UTF-8"?>
<!DOCTYPE svg PUBLIC "-//W3C//DTD SVG 1.1//EN" "http://www.w3.org/Graphics/SVG/1.1/DTD/svg11.dtd">
<!-- Creator: CorelDRAW 2020 (64-Bit) -->
<svg xmlns="http://www.w3.org/2000/svg" xml:space="preserve" width="60.6994mm" height="40.0234mm" version="1.1" style="shape-rendering:geometricPrecision; text-rendering:geometricPrecision; image-rendering:optimizeQuality; fill-rule:evenodd; clip-rule:evenodd"
viewBox="0 0 6069.94 4002.34"
 xmlns:xlink="http://www.w3.org/1999/xlink"
 xmlns:xodm="http://www.corel.com/coreldraw/odm/2003">
 <defs>
  <style type="text/css">
   <![CDATA[
    .fil0 {fill:#008CDB;fill-rule:nonzero}
   ]]>
  </style>
 </defs>
 <g id="Layer_x0020_1">
  <metadata id="CorelCorpID_0Corel-Layer"/>
  <path class="fil0" d="M3604.03 2257.26c-151.75,0 -284.53,94.82 -360.41,227.62l-2238.29 0c-379.37,0 -682.86,-322.47 -682.86,-701.84 0,-379.37 303.49,-701.83 682.86,-701.83l322.47 0c0,-75.88 37.94,-151.75 56.91,-227.63 18.96,-18.97 18.96,-56.9 37.93,-75.87 151.75,-284.53 455.25,-474.21 796.68,-474.21 303.5,0 569.06,151.74 739.78,379.37 94.84,-37.94 189.68,-75.88 303.49,-94.85 -208.65,-360.4 -588.02,-588.02 -1043.27,-588.02 -512.15,0 -948.43,322.46 -1138.11,777.71l-75.88 0c-550.08,0 -1005.33,455.25 -1005.33,1024.3 0,569.06 455.25,1005.34 1005.33,1005.34l2257.26 0c56.91,132.78 189.69,227.62 360.41,227.62 208.67,0 379.37,-170.72 379.37,-398.34 0,-227.62 -170.72,-379.37 -398.34,-379.37l0 0zm1251.92 -777.74c-227.62,-455.24 -701.83,-777.71 -1232.95,-777.71 -663.9,0 -1213.99,474.22 -1346.77,1100.18 -322.47,37.93 -607,208.65 -777.71,455.24l1650.26 0c113.81,-151.74 284.55,-227.62 474.22,-227.62 341.43,0 606.99,284.53 606.99,625.96 0,341.44 -284.53,625.97 -606.99,625.97 -189.69,0 -360.41,-94.85 -474.22,-227.63l-1839.95 0c75.88,531.12 531.12,948.43 1062.24,948.43l2465.91 0c682.87,0 1232.96,-550.09 1232.96,-1251.92 0,-701.84 -550.09,-1251.93 -1213.99,-1270.9l0 0z"/>
 </g>
</svg>
