<?xml version="1.0" encoding="UTF-8"?>
<!DOCTYPE svg PUBLIC "-//W3C//DTD SVG 1.1//EN" "http://www.w3.org/Graphics/SVG/1.1/DTD/svg11.dtd">
<!-- Creator: CorelDRAW 2020 (64-Bit) -->
<svg xmlns="http://www.w3.org/2000/svg" xml:space="preserve" width="73.9659mm" height="63.6245mm" version="1.1" style="shape-rendering:geometricPrecision; text-rendering:geometricPrecision; image-rendering:optimizeQuality; fill-rule:evenodd; clip-rule:evenodd"
viewBox="0 0 7420.2 6382.75"
 xmlns:xlink="http://www.w3.org/1999/xlink"
 xmlns:xodm="http://www.corel.com/coreldraw/odm/2003">
 <defs>
  <style type="text/css">
   <![CDATA[
    .fil0 {fill:#E52241;fill-rule:nonzero}
    .fil1 {fill:#E41C3F;fill-rule:nonzero}
   ]]>
  </style>
 </defs>
 <g id="Layer_x0020_1">
  <metadata id="CorelCorpID_0Corel-Layer"/>
  <path class="fil0" d="M6521.67 2033.85l-1472.78 0 0 -233.33c0,-180.99 -146.73,-327.75 -327.74,-327.75l-2920.62 0c-181.01,0 -327.73,146.77 -327.73,327.75l0 233.33 -1472.8 0 0 -1427.9c0,-333.27 272.67,-605.95 605.95,-605.95l5309.8 0c333.27,0 605.92,272.68 605.92,605.95l0 1427.9z"/>
  <path class="fil0" d="M5915.75 6382.75l-5309.8 0c-333.28,0 -605.95,-272.69 -605.95,-605.95l0 -1427.9 1472.8 0 0 233.29c0,181.02 146.75,327.75 327.74,327.75l2920.61 0c181.02,0 327.74,-146.74 327.74,-327.75l0 -233.29 1472.78 0 0 1427.9c0,333.26 -272.65,605.95 -605.92,605.95z"/>
  <polygon class="fil0" points="-0,3927.75 1472.8,3927.75 1472.8,2454.97 -0,2454.97 "/>
  <polygon class="fil0" points="5048.89,3927.75 6521.68,3927.75 6521.68,2454.97 5048.89,2454.97 "/>
  <path class="fil1" d="M7094.46 6302.7c-135.47,0 -245.64,-110.21 -245.64,-245.67 0,-135.48 110.17,-245.69 245.64,-245.69 135.47,0 245.68,110.21 245.68,245.69 0,135.46 -110.21,245.67 -245.68,245.67zm325.74 -245.67c0,-179.61 -146.13,-325.71 -325.74,-325.71 -179.61,0 -325.7,146.09 -325.7,325.71 0,179.6 146.08,325.73 325.7,325.73 179.6,0 325.74,-146.12 325.74,-325.73z"/>
  <path class="fil1" d="M7150.06 5999.84c0,28.69 -18.23,47.87 -51.99,47.87l-48.78 0 0 -96.26 47.43 0c33.76,0 53.33,15.99 53.33,47.92l0 0.46zm66.6 -1.85l0 -1.81c0,-31.49 -9.59,-56.56 -26.93,-73.9 -20.07,-20.07 -49.66,-30.54 -86.61,-30.54l-119.9 0 0 319.16 66.07 0 0 -104.83 41.48 0 58.82 104.83 75.7 0 -67.95 -118.56c35.14,-15.47 59.31,-46.06 59.31,-94.36z"/>
 </g>
</svg>
